<svg xmlns="http://www.w3.org/2000/svg" viewBox="0 0 64 64" aria-hidden="true">
  <defs>
    <linearGradient id="bgT" x1="0" y1="0" x2="0" y2="1">
      <stop offset="0" stop-color="#faf2ec"/>
      <stop offset="1" stop-color="#d8b48a"/>
    </linearGradient>
  </defs>
  <rect width="64" height="64" fill="url(#bgT)"/>
  <!-- 衣领 -->
  <path d="M14 60 Q14 50 24 48 L40 48 Q50 50 50 60 Z" fill="#8c5a3c"/>
  <!-- 脸 -->
  <circle cx="32" cy="34" r="14" fill="#fde0d4"/>
  <!-- 短发 -->
  <path d="M18 30 Q19 18 32 17 Q45 18 46 30 Q42 23 32 24 Q22 23 18 30 Z" fill="#3a2a25"/>
  <!-- 眼镜 -->
  <circle cx="27" cy="36" r="3.2" fill="#fff" stroke="#3a2a25" stroke-width="1.3"/>
  <circle cx="37" cy="36" r="3.2" fill="#fff" stroke="#3a2a25" stroke-width="1.3"/>
  <line x1="30.2" y1="36" x2="33.8" y2="36" stroke="#3a2a25" stroke-width="1.3"/>
  <!-- 瞳孔 -->
  <circle cx="27" cy="36" r="1.2" fill="#3a2a25"/>
  <circle cx="37" cy="36" r="1.2" fill="#3a2a25"/>
  <!-- 嘴巴（温柔笑） -->
  <path d="M28 42 Q32 45 36 42" stroke="#c75164" stroke-width="1.4" stroke-linecap="round" fill="none"/>
</svg>
