<svg xmlns="http://www.w3.org/2000/svg" viewBox="0 0 64 64" aria-hidden="true">
  <defs>
    <linearGradient id="bgF" x1="0" y1="0" x2="0" y2="1">
      <stop offset="0" stop-color="#ffd1d6"/>
      <stop offset="1" stop-color="#ff7e8b"/>
    </linearGradient>
  </defs>
  <rect width="64" height="64" fill="url(#bgF)"/>
  <!-- 双麻花辫 -->
  <ellipse cx="20" cy="44" rx="3.4" ry="6.5" fill="#7a4a37"/>
  <ellipse cx="44" cy="44" rx="3.4" ry="6.5" fill="#7a4a37"/>
  <!-- 脸 -->
  <circle cx="32" cy="36" r="14" fill="#fde0d4"/>
  <!-- 头发刘海 -->
  <path d="M18 32 Q19 22 32 19 Q45 22 46 32 Q42 26 32 24 Q22 26 18 32 Z" fill="#7a4a37"/>
  <!-- 蝴蝶结 -->
  <ellipse cx="42" cy="22" rx="3.5" ry="2.2" fill="#ff5b6e"/>
  <circle cx="42" cy="22" r="1.2" fill="#ffe6ea"/>
  <!-- 眼睛 -->
  <circle cx="27" cy="36" r="1.6" fill="#3a2a25"/>
  <circle cx="37" cy="36" r="1.6" fill="#3a2a25"/>
  <!-- 嘴巴 -->
  <path d="M28 42 Q32 45 36 42" stroke="#c75164" stroke-width="1.4" stroke-linecap="round" fill="none"/>
  <!-- 腮红 -->
  <ellipse cx="24" cy="40" rx="2" ry="1.2" fill="#ffb1bb" opacity="0.7"/>
  <ellipse cx="40" cy="40" rx="2" ry="1.2" fill="#ffb1bb" opacity="0.7"/>
</svg>
